<svg xmlns="http://www.w3.org/2000/svg" xmlns:xlink="http://www.w3.org/1999/xlink" width="24" height="28" viewBox="0 0 24 28"><defs><path id="chida" d="M201.75 1817.11h-.07c-.92 0-1.67.75-1.67 1.67v7.25c0 .92.75 1.67 1.67 1.67h.08c.92 0 1.67-.75 1.67-1.67v-7.25c0-.92-.75-1.67-1.68-1.67z"/><path id="chidb" d="M204.23 1828.84c0 .84.7 1.52 1.54 1.52h1.64v3.92c0 .92.75 1.67 1.67 1.67h.08c.92 0 1.67-.75 1.67-1.67v-3.92h2.3v3.92c0 .92.75 1.67 1.67 1.67h.07c.93 0 1.68-.75 1.68-1.67v-3.92h1.64c.85 0 1.54-.68 1.54-1.52v-11.46h-15.5z"/><path id="chidc" d="M219.78 1816.23c0 .16 0 .3-.02.46H204.2l-.02-.46c0-2.48 1.59-4.65 3.94-5.8l-1.3-2a.28.28 0 0 1 .47-.3l1.34 2.07a8.86 8.86 0 0 1 6.7 0l1.35-2.07a.28.28 0 0 1 .38-.08c.13.08.17.25.09.38l-1.31 2c2.35 1.15 3.94 3.32 3.94 5.8zm-10.66-2.95a.74.74 0 0 0-.75-.74.75.75 0 1 0 0 1.49c.42 0 .75-.34.75-.75zm7.22 0a.74.74 0 0 0-.75-.74.75.75 0 1 0 0 1.49c.41 0 .75-.34.75-.75z"/><path id="chidd" d="M222.27 1817.11h-.06c-.93 0-1.68.75-1.68 1.67v7.25c0 .92.76 1.67 1.68 1.67h.07c.92 0 1.67-.75 1.67-1.67v-7.25c0-.92-.75-1.67-1.68-1.67z"/></defs><g><g transform="translate(-200 -1808)"><g><use fill="#7b7b7b" xlink:href="#chida"/></g><g><use fill="#7b7b7b" xlink:href="#chidb"/></g><g><use fill="#7b7b7b" xlink:href="#chidc"/></g><g><use fill="#7b7b7b" xlink:href="#chidd"/></g></g></g></svg>