<svg xmlns="http://www.w3.org/2000/svg" xmlns:xlink="http://www.w3.org/1999/xlink" width="23" height="28" viewBox="0 0 23 28"><defs><path id="foxua" d="M76 1828.54c-.03.1-.6 2.01-1.96 3.98-1.17 1.7-2.4 3.4-4.32 3.44-1.9.04-2.5-1.1-4.66-1.1s-2.84 1.07-4.63 1.14c-1.86.07-3.27-1.84-4.46-3.54-2.43-3.48-4.28-9.83-1.79-14.11a6.92 6.92 0 0 1 5.85-3.51c1.82-.04 3.54 1.22 4.66 1.22 1.11 0 3.2-1.5 5.4-1.29.93.04 3.51.37 5.17 2.78-.13.08-3.09 1.78-3.05 5.33.04 4.23 3.75 5.64 3.79 5.66zm-11.54-14.09a5.84 5.84 0 0 1 1.5-4.33 6.35 6.35 0 0 1 4.16-2.12 6.14 6.14 0 0 1-1.47 4.47c-.98 1.18-2.6 2.1-4.19 1.98z"/></defs><g><g transform="translate(-53 -1808)"><g><use fill="#7b7b7b" xlink:href="#foxua"/></g></g></g></svg>