<svg xmlns="http://www.w3.org/2000/svg" xmlns:xlink="http://www.w3.org/1999/xlink" width="35" height="22" viewBox="0 0 35 22"><defs><path id="gysia" d="M253.85 1711a10.91 10.91 0 1 1-10.93-10.9c6.04-.01 10.93 4.87 10.93 10.9z"/><path id="gysib" d="M256.05 1700.09c-2.45 0-4.7.81-6.53 2.17h.01c.36.35.75.6 1.06 1l-2.27.03c-.36.36-.69.75-1 1.15h4.02c.3.37.58.68.84 1.09h-5.58c-.2.35-.4.71-.56 1.08h6.77c.18.38.34.66.47 1.06h-7.64c-.12.37-.22.76-.3 1.15h8.27c.08.38.14.73.18 1.08h-8.62c-.03.36-.05.72-.05 1.1h8.73c0 .38-.02.74-.06 1.08h-8.62c.04.37.1.73.17 1.1h8.25c-.08.35-.18.7-.3 1.07h-7.67c.11.37.25.73.4 1.09h6.8c-.2.4-.4.71-.64 1.08h-5.6c.22.38.47.75.73 1.1l4.03.06c-.35.4-.79.66-1.19 1.02l-1.94-.03a10.91 10.91 0 0 0 18.77-7.58c0-6.02-4.9-10.9-10.93-10.9z"/></defs><g><g transform="translate(-232 -1700)"><g><use fill="#26a6d1" xlink:href="#gysia"/></g><g><use fill="#e2574c" xlink:href="#gysib"/></g></g></g></svg>