<?xml version="1.0" encoding="UTF-8"?>
<svg width="137px" height="37px" viewBox="0 0 137 37" version="1.1" xmlns="http://www.w3.org/2000/svg" xmlns:xlink="http://www.w3.org/1999/xlink">
    <!-- Generator: Sketch 50.2 (55047) - http://www.bohemiancoding.com/sketch -->
    <title>ParkCinema Logo</title>
    <desc>Created with Sketch.</desc>
    <defs>
        <linearGradient x1="50%" y1="100%" x2="50%" y2="0%" id="linearGradient-1">
            <stop stop-color="#D70000" offset="0%"></stop>
            <stop stop-color="#FF0000" offset="100%"></stop>
        </linearGradient>
    </defs>
    <g id="Page-1" stroke="none" stroke-width="1" fill="none" fill-rule="evenodd">
        <g id="ParkCinema-Logo" fill-rule="nonzero">
            <path d="M34.8343121,5.10506329 L32.4110556,22.0360759 L19.5957569,33.0658228 L20.0151666,14.6829114 L34.8343121,5.10506329 Z M18.1744237,36.9297468 L5.07951843,25.9 L2.05044781,8.64113924 L17.7550139,18.5234177 L18.1744237,36.9297468 Z M31.1528263,5.73734177 L15.5880634,14.7765823 L0.0233005432,5.76075949 L15.5880634,0.046835443 L31.1528263,5.73734177 Z" id="Combined-Shape" fill="url(#linearGradient-1)"></path>
            <g id="Group" transform="translate(42.406989, 9.367089)" fill="#FFFFFF">
                <path d="M1.70093966,11.0063291 L1.70093966,15.3151899 L0.093202173,15.3151899 L0.093202173,4.6835443 L1.91064455,4.6835443 C2.79606519,4.6835443 3.47178094,4.75379747 3.91449126,4.87088608 C4.38050213,4.98797468 4.77661136,5.2221519 5.12611951,5.57341772 C5.73193364,6.18227848 6.0348407,6.93164557 6.0348407,7.84493671 C6.0348407,8.82848101 5.70863309,9.60126582 5.05621788,10.1632911 C4.40380267,10.7253165 3.54168257,11.0297468 2.4232565,11.0297468 L1.70093966,11.0297468 L1.70093966,11.0063291 Z M1.70093966,9.50759494 L2.30675378,9.50759494 C3.774688,9.50759494 4.49700485,8.94556962 4.49700485,7.79810127 C4.49700485,6.69746835 3.75138746,6.15886076 2.23685215,6.15886076 L1.70093966,6.15886076 L1.70093966,9.50759494 Z" id="Shape"></path>
                <path d="M12.7686977,12.7392405 L8.22509176,12.7392405 L7.03676406,15.3151899 L5.31252386,15.3151899 L10.5551461,4.00443038 L15.611364,15.3151899 L13.8638232,15.3151899 L12.7686977,12.7392405 Z M12.1162825,11.2170886 L10.5551461,7.61075949 L8.90080752,11.2170886 L12.1162825,11.2170886 Z" id="Shape"></path>
                <path d="M20.4112759,10.7955696 L23.6966525,15.3386076 L21.7394068,15.3386076 L18.7103362,10.9829114 L18.4074292,10.9829114 L18.4074292,15.3386076 L16.8229922,15.3386076 L16.8229922,4.6835443 L18.6870357,4.6835443 C20.0850683,4.6835443 21.0869916,4.94113924 21.7161063,5.47974684 C22.3918221,6.06518987 22.7413302,6.83797468 22.7413302,7.79810127 C22.7413302,8.54746835 22.5316253,9.20316456 22.088915,9.74177215 C21.6695052,10.2803797 21.1102922,10.6316456 20.4112759,10.7955696 Z M18.4074292,9.55443038 L18.9200411,9.55443038 C20.4345764,9.55443038 21.1801938,8.96898734 21.1801938,7.82151899 C21.1801938,6.7443038 20.4345764,6.18227848 18.9666422,6.18227848 L18.4074292,6.18227848 L18.4074292,9.55443038 Z" id="Shape"></path>
                <polygon id="Shape" points="26.6092204 8.9221519 30.7334165 4.6835443 32.853766 4.6835443 28.0771546 9.50759494 32.8770665 15.3151899 30.7567171 15.3151899 26.935428 10.5848101 26.6092204 10.9126582 26.6092204 15.3151899 25.0014829 15.3151899 25.0014829 4.6835443 26.6092204 4.6835443"></polygon>
                <path d="M46.6476876,5.24556962 L46.6476876,7.14240506 C45.7156658,6.36962025 44.7603436,5.97151899 43.7817207,5.97151899 C42.6865952,5.97151899 41.777874,6.36962025 41.0322566,7.14240506 C40.2866393,7.91518987 39.9138306,8.87531646 39.9138306,9.99936709 C39.9138306,11.1234177 40.2866393,12.0601266 41.0322566,12.8329114 C41.777874,13.6056962 42.7098958,13.9803797 43.7817207,13.9803797 C44.3409338,13.9803797 44.8302452,13.8867089 45.2030539,13.6993671 C45.4127588,13.6056962 45.6457642,13.4886076 45.8787696,13.3246835 C46.1117751,13.1607595 46.368081,12.9734177 46.624387,12.7626582 L46.624387,14.7063291 C45.7156658,15.221519 44.7603436,15.4791139 43.7351197,15.4791139 C42.2205843,15.4791139 40.9390545,14.9405063 39.8672295,13.8867089 C38.7954045,12.8094937 38.259492,11.521519 38.259492,10.0227848 C38.259492,8.66455696 38.7022023,7.44683544 39.587623,6.39303797 C40.6827485,5.08164557 42.1040816,4.44936709 43.8516224,4.44936709 C44.8302452,4.47278481 45.7622669,4.73037975 46.6476876,5.24556962" id="Shape"></path>
                <rect id="Rectangle-path" x="48.6282337" y="4.6835443" width="1.60773748" height="10.6316456"></rect>
                <polygon id="Shape" points="52.6359272 15.3151899 52.6359272 3.95759494 60.348407 12.0835443 60.348407 4.6835443 61.9328439 4.6835443 61.9328439 15.9708861 54.2203641 7.86835443 54.2203641 15.3151899"></polygon>
                <polygon id="Shape" points="70.1812362 6.18227848 65.9405374 6.18227848 65.9405374 8.75822785 70.0647335 8.75822785 70.0647335 10.256962 65.9405374 10.256962 65.9405374 13.8164557 70.1812362 13.8164557 70.1812362 15.3151899 64.3327999 15.3151899 64.3327999 4.6835443 70.1812362 4.6835443"></polygon>
                <polygon id="Shape" points="71.5792688 15.3151899 73.7928204 3.88734177 77.4277052 12.1537975 81.2023932 3.88734177 83.2062399 15.3151899 81.5752019 15.3151899 80.549978 8.89873418 77.4044046 15.806962 74.3520335 8.89873418 73.2336074 15.3151899"></polygon>
                <path d="M91.7109382,12.7392405 L87.1673323,12.7392405 L85.9790046,15.3151899 L84.2547644,15.3151899 L89.4973866,4.00443038 L94.5536045,15.3151899 L92.8060637,15.3151899 L91.7109382,12.7392405 Z M91.058523,11.2170886 L89.4973866,7.61075949 L87.843048,11.2170886 L91.058523,11.2170886 Z" id="Shape"></path>
                <rect id="Rectangle-path" x="92.9924681" y="0.210759494" width="1.53783585" height="1.54556962"></rect>
                <rect id="Rectangle-path" x="88.35566" y="0.210759494" width="1.53783585" height="1.54556962"></rect>
                <rect id="Rectangle-path" x="83.7188519" y="0.210759494" width="1.53783585" height="1.54556962"></rect>
                <rect id="Rectangle-path" x="79.0587432" y="0.210759494" width="1.53783585" height="1.54556962"></rect>
                <rect id="Rectangle-path" x="74.4219351" y="0.210759494" width="1.53783585" height="1.54556962"></rect>
                <rect id="Rectangle-path" x="69.785127" y="0.210759494" width="1.53783585" height="1.54556962"></rect>
                <rect id="Rectangle-path" x="65.1483189" y="0.210759494" width="1.53783585" height="1.54556962"></rect>
                <rect id="Rectangle-path" x="60.4882102" y="0.210759494" width="1.53783585" height="1.54556962"></rect>
                <rect id="Rectangle-path" x="55.8514021" y="0.210759494" width="1.53783585" height="1.54556962"></rect>
                <rect id="Rectangle-path" x="51.214594" y="0.210759494" width="1.53783585" height="1.54556962"></rect>
                <rect id="Rectangle-path" x="46.5544854" y="0.210759494" width="1.53783585" height="1.54556962"></rect>
                <rect id="Rectangle-path" x="41.9176773" y="0.210759494" width="1.53783585" height="1.54556962"></rect>
                <rect id="Rectangle-path" x="37.2808692" y="0.210759494" width="1.53783585" height="1.54556962"></rect>
                <rect id="Rectangle-path" x="32.6207605" y="0.210759494" width="1.53783585" height="1.54556962"></rect>
                <rect id="Rectangle-path" x="27.9839524" y="0.210759494" width="1.53783585" height="1.54556962"></rect>
                <rect id="Rectangle-path" x="23.3471443" y="0.210759494" width="1.53783585" height="1.54556962"></rect>
                <rect id="Rectangle-path" x="18.6870357" y="0.210759494" width="1.53783585" height="1.54556962"></rect>
                <rect id="Rectangle-path" x="14.0502276" y="0.210759494" width="1.53783585" height="1.54556962"></rect>
                <rect id="Rectangle-path" x="9.41341947" y="0.210759494" width="1.53783585" height="1.54556962"></rect>
                <rect id="Rectangle-path" x="4.77661136" y="0.210759494" width="1.53783585" height="1.54556962"></rect>
                <rect id="Rectangle-path" x="0.116502716" y="0.210759494" width="1.53783585" height="1.54556962"></rect>
                <rect id="Rectangle-path" x="92.9924681" y="18.2424051" width="1.53783585" height="1.54556962"></rect>
                <rect id="Rectangle-path" x="88.35566" y="18.2424051" width="1.53783585" height="1.54556962"></rect>
                <rect id="Rectangle-path" x="83.7188519" y="18.2424051" width="1.53783585" height="1.54556962"></rect>
                <rect id="Rectangle-path" x="79.0587432" y="18.2424051" width="1.53783585" height="1.54556962"></rect>
                <rect id="Rectangle-path" x="74.4219351" y="18.2424051" width="1.53783585" height="1.54556962"></rect>
                <rect id="Rectangle-path" x="69.785127" y="18.2424051" width="1.53783585" height="1.54556962"></rect>
                <rect id="Rectangle-path" x="65.1483189" y="18.2424051" width="1.53783585" height="1.54556962"></rect>
                <rect id="Rectangle-path" x="60.4882102" y="18.2424051" width="1.53783585" height="1.54556962"></rect>
                <rect id="Rectangle-path" x="55.8514021" y="18.2424051" width="1.53783585" height="1.54556962"></rect>
                <rect id="Rectangle-path" x="51.214594" y="18.2424051" width="1.53783585" height="1.54556962"></rect>
                <rect id="Rectangle-path" x="46.5544854" y="18.2424051" width="1.53783585" height="1.54556962"></rect>
                <rect id="Rectangle-path" x="41.9176773" y="18.2424051" width="1.53783585" height="1.54556962"></rect>
                <rect id="Rectangle-path" x="37.2808692" y="18.2424051" width="1.53783585" height="1.54556962"></rect>
                <rect id="Rectangle-path" x="32.6207605" y="18.2424051" width="1.53783585" height="1.54556962"></rect>
                <rect id="Rectangle-path" x="27.9839524" y="18.2424051" width="1.53783585" height="1.54556962"></rect>
                <rect id="Rectangle-path" x="23.3471443" y="18.2424051" width="1.53783585" height="1.54556962"></rect>
                <rect id="Rectangle-path" x="18.6870357" y="18.2424051" width="1.53783585" height="1.54556962"></rect>
                <rect id="Rectangle-path" x="14.0502276" y="18.2424051" width="1.53783585" height="1.54556962"></rect>
                <rect id="Rectangle-path" x="9.41341947" y="18.2424051" width="1.53783585" height="1.54556962"></rect>
                <rect id="Rectangle-path" x="4.77661136" y="18.2424051" width="1.53783585" height="1.54556962"></rect>
                <rect id="Rectangle-path" x="0.116502716" y="18.2424051" width="1.53783585" height="1.54556962"></rect>
            </g>
        </g>
    </g>
</svg>