<svg xmlns="http://www.w3.org/2000/svg" xmlns:xlink="http://www.w3.org/1999/xlink" width="48" height="15" viewBox="0 0 48 15"><defs><path id="uxqxa" d="M132.45 1704.04l-2.4 14.86h-3.85l2.4-14.86zm10.99 9.97c-.03 2.99-2.66 4.92-6.7 4.92a12.1 12.1 0 0 1-4.29-.77l.54-3.23.5.23c1.26.53 2.08.76 3.62.76 1.1 0 2.29-.44 2.3-1.4 0-.63-.5-1.09-1.99-1.8-1.46-.68-3.4-1.83-3.37-3.9.02-2.8 2.7-4.76 6.5-4.76 1.48 0 2.68.32 3.44.61l-.52 3.11-.35-.15a6.74 6.74 0 0 0-2.86-.55c-1.52 0-2.2.62-2.22 1.24 0 .67.82 1.11 2.17 1.77 2.22 1.03 3.24 2.28 3.23 3.92zm13.52 4.9h-3.56l-.58-2.96h-4.52l-1.1 2.95h-4.05l5.72-13.62c.4-.93 1.1-1.2 2.01-1.2h2.98zm-7.54-5.94zm0 0h2.73l-1.18-4.8s-1.46 4.8-1.55 4.8zm-26.44-8.93h4.07l-6.05 14.84h-4.07l-3.45-12.77c2.44 1.24 4.62 3.74 5.32 6.03l.41 2 3.77-10.1z"/><path id="uxqxb" d="M117.53 1705.95a2.51 2.51 0 0 0-2.5-1.91h-5.97l-.06.27c4.66 1.14 8.57 4.65 9.83 7.94z"/></defs><g><g transform="translate(-109 -1704)"><g><use fill="#2293bc" xlink:href="#uxqxa"/></g><g><use fill="#efc75e" xlink:href="#uxqxb"/></g></g></g></svg>